<svg width="297" height="297" xmlns="http://www.w3.org/2000/svg" preserveAspectRatio="xMidYMid meet" version="1.0">
  <path d="m19.96206,1.1879c-9.3,3.3 -16.9,11.2 -19.3,20.3c-0.7,2.4 -0.9,48.6 -0.8,129.1l0.3,125.3l3,5.4c3.7,6.6 9.2,11.5 16.2,14.1c5.3,2 7.7,2 129.3,2c121.6,0 124,0 129.3,-2c7,-2.6 12.5,-7.5 16.2,-14.1l3,-5.4l0,-127.5l0,-127.5l-2.9,-5.3c-3.3,-6 -7.6,-10.1 -13.9,-13.4l-4.2,-2.3l-125.5,-0.2c-118.4,-0.2 -125.8,-0.1 -130.7,1.5zm259.9,7.5c2.6,1.5 4.9,3.1 5.2,3.6c0.7,1.1 -13.2,9.8 -19.7,12.4c-3.9,1.5 -7.1,2 -12.7,1.8c-20.1,-0.7 -200.2,-0.4 -205,0.3c-4.7,0.7 -6.6,0.4 -13.2,-1.8c-7.4,-2.4 -21.8,-10.8 -21.8,-12.6c0,-1.1 6.2,-4.9 9.8,-6c1.5,-0.5 59,-0.8 127.7,-0.7l125,0.2l4.7,2.8zm-265.4,10.8c7.2,4.8 11.1,8.9 13.8,14.2l2.5,4.8l0.3,100.7c0.2,55.4 0.7,103.1 1.1,106c1.1,8.2 -3,15.8 -14.3,26.1c-9.7,9 -10.5,9 -11.7,0.7c-0.3,-2.2 -0.5,-59.5 -0.3,-127.1c0.3,-103.5 0.5,-123.4 1.7,-125.8c0.8,-1.5 1.6,-2.7 1.8,-2.7c0.3,0 2.5,1.4 5.1,3.1zm277.2,128.5c0,119.9 -0.2,130.4 -2.9,130.4c-0.3,0 -4.3,-3.4 -8.8,-7.5c-6.1,-5.7 -9,-9.2 -11.4,-14c-3,-6.1 -3.1,-6.8 -2.4,-13.7c0.5,-4 0.9,-51.7 1,-105.9c0.2,-54.2 0.6,-99.6 1,-101c1.6,-5 6.2,-10.3 13,-15.1l7,-4.9l1.7,3.8c1.6,3.5 1.7,12.6 1.8,127.9zm-254.5,-117.5l4.5,1.1l-3.2,3.4l-3.2,3.3l-1.8,-4.1c-2.5,-5.6 -2.8,-5.3 3.7,-3.7zm227.3,3.4l-2.2,4.5l-2.7,-3.3c-1.5,-1.7 -2.5,-3.4 -2.4,-3.6c0.4,-0.4 6.3,-1.8 8.2,-2c0.9,-0.1 0.5,1.4 -0.9,4.4zm-17.3,-0.6c4.9,2.2 9,6.2 11.9,11.6l2.1,4l0,94l0,94l-2.2,4.1c-2.9,5.3 -9.3,11 -14,12.4c-2.7,0.8 -31.4,1 -98.5,0.8l-94.6,-0.3l-4.3,-3c-2.4,-1.7 -5.7,-5 -7.4,-7.4l-3,-4.3l-0.3,-94.6c-0.3,-106.1 -0.7,-99.8 7,-106.7c7.5,-6.8 0.8,-6.4 104.8,-6.4c89.6,-0.1 94.7,0 98.5,1.8zm16.1,224.8c-0.1,0.2 -2.1,-0.4 -4.3,-1.3l-4.1,-1.6l3.1,-2.8l3.2,-2.8l1.2,4.1c0.7,2.3 1.1,4.2 0.9,4.4zm-222.9,-5.3l2.6,2.4l-3.8,1.6c-2.1,0.9 -3.9,1.5 -4.1,1.3c-0.4,-0.4 1.8,-7.7 2.3,-7.7c0.2,0 1.6,1.1 3,2.4zm108.6,7c52.6,0 97.7,-0.2 100.2,-0.4c6.8,-0.5 18.8,5.9 29,15.6c9.1,8.6 9.1,9.1 0.5,13.6l-5.2,2.8l-124.7,0l-124.7,0l-5.1,-2.5c-8.8,-4.4 -8.7,-4.5 0.8,-13.5c11.6,-10.8 25,-17.9 30.9,-16.2c1.4,0.4 45.6,0.7 98.3,0.6z"/>
</svg>